<?xml version="1.0" standalone="no"?>
<!DOCTYPE svg PUBLIC "-//W3C//DTD SVG 20010904//EN"
 "http://www.w3.org/TR/2001/REC-SVG-20010904/DTD/svg10.dtd">
<svg version="1.0" xmlns="http://www.w3.org/2000/svg"
 width="126.000000pt" height="146.000000pt" viewBox="0 0 126.000000 146.000000"
 preserveAspectRatio="xMidYMid meet">

<g transform="translate(0.000000,146.000000) scale(0.100000,-0.100000)"
fill="#DFFF00" stroke="none">
<path d="M457 1322 l-87 -87 0 -164 0 -164 -85 -79 -85 -80 0 -177 0 -177 94
-87 94 -87 245 0 244 0 92 86 91 86 0 177 0 176 -80 80 -80 80 0 160 0 160
-86 93 -86 92 -92 0 -91 0 -88 -88z m307 -18 l58 -64 -66 0 -66 0 0 -96 0 -95
-28 19 c-27 20 -28 20 -52 1 -14 -10 -28 -19 -32 -19 -5 0 -8 43 -8 95 l0 95
-67 0 -67 0 64 65 64 65 71 -1 70 0 59 -65z m-234 -164 l0 -60 -60 0 -60 0 0
60 0 60 60 0 60 0 0 -60z m320 0 l0 -60 -55 0 -55 0 0 60 0 60 55 0 55 0 0
-60z m-310 -114 c0 -3 -23 -19 -102 -70 l-28 -18 0 46 0 46 65 0 c36 0 65 -2
65 -4z m190 -58 c49 -34 89 -63 87 -64 -1 -1 -42 -16 -91 -33 l-89 -31 -98 32
-98 32 92 62 c51 35 96 63 100 63 4 1 48 -27 97 -61z m120 17 l0 -46 -62 42
c-35 23 -65 44 -67 46 -2 1 26 3 62 3 l67 0 0 -45z m-335 -155 l119 -40 115
40 114 41 34 -33 33 -32 0 -235 0 -235 -32 -33 -32 -33 -235 0 -235 0 -33 32
-33 32 0 235 0 235 32 33 c18 18 32 33 33 33 0 0 54 -18 120 -40z m505 -263
c0 -131 -2 -145 -20 -162 -20 -18 -20 -17 -20 170 l0 188 20 -26 c18 -22 20
-40 20 -170z m-740 1 c0 -180 0 -181 -20 -163 -18 17 -20 31 -20 163 0 121 3
148 17 164 9 10 18 18 20 18 1 0 3 -82 3 -182z"/>
<path d="M220 80 c0 -19 7 -20 165 -20 158 0 165 1 165 20 0 19 -7 20 -165 20
-158 0 -165 -1 -165 -20z"/>
<path d="M720 80 c0 -19 7 -20 160 -20 153 0 160 1 160 20 0 19 -7 20 -160 20
-153 0 -160 -1 -160 -20z"/>
</g>
</svg>
